PathFileType	4	(X/Y/Z)	pose_F01_0-96.trc
DataRate	CameraRate	NumFrames	NumMarkers	Units	OrigDataRate	OrigDataStartFrame	OrigNumFrames
30	30	9	21	m	30	80	96
Frame#	Time	CHip			RHip			RKnee			RAnkle			RBigToe			RSmallToe			RHeel			LHip			LKnee			LAnkle			LBigToe			LSmallToe			LHeel			Neck			Nose			RShoulder			RElbow			RWrist			LShoulder			LElbow			LWrist			
		X1	Y1	Z1	X2	Y2	Z2	X3	Y3	Z3	X4	Y4	Z4	X5	Y5	Z5	X6	Y6	Z6	X7	Y7	Z7	X8	Y8	Z8	X9	Y9	Z9	X10	Y10	Z10	X11	Y11	Z11	X12	Y12	Z12	X13	Y13	Z13	X14	Y14	Z14	X15	Y15	Z15	X16	Y16	Z16	X17	Y17	Z17	X18	Y18	Z18	X19	Y19	Z19	X20	Y20	Z20	X21	Y21	Z21	
80	2.6666666666666665	-1.2693983024951623	1.7960388101560865	0.23375547942071775	-0.31234949730209927	1.8930801115223783	-0.6574898316587906	-0.24592887861894563	1.6953768014407875	-0.4441117231574156													-1.18956680585061	1.7940383036343537	0.09893283351825413	-0.22263336777192558	1.7227591541157514	-0.6046296733483204													-0.2963533391825674	2.04112169175659	-0.7302611466806959	-0.283908512740108	2.098990745268774	-0.7127514157822998	-0.3180073853856454	2.036899054982032	-0.6446719311545831	-0.32995641383358576	1.96227669430463	-0.6209996664934441	-0.3405117306113324	1.8954615549196077	-0.57049046520664	-0.272175287685981	2.0472119841583876	-0.8158312601771169	-0.25078139660314813	1.9802416046833868	-0.8618066554159456	-0.2532582354768084	2.0102071965948998	-0.7839683060815145
81	2.7	-1.2735525456181143	1.7990162802955534	0.2395419066461788	-0.3123291558114384	1.8957198188317352	-0.6578414841282878	-0.24592887861894563	1.6953768014407875	-0.4441117231574156													-1.188811484221232	1.7973201507473295	0.09485505861947212	-0.22263336777192558	1.7227591541157514	-0.6046296733483204													-0.2985065922228729	2.0410682665375752	-0.7281970116398099	-0.2847872012062333	2.0990785732792316	-0.71553099448909	-0.31893313561210734	2.037091736857994	-0.6475504866888923	-0.3299149197072143	1.960128208646498	-0.6207062147986643	-0.3403357394727096	1.8945192591294784	-0.5704247829095712	-0.274412606276071	2.0472589557804763	-0.8137372527306138	-0.2514952231737166	1.9837515618478354	-0.85413652710578	-0.2525706288740533	2.017746544644538	-0.7725114538812725
82	2.7333333333333334	-1.2741961433031848	1.7957364491422734	0.24381101845871359	-0.3134489061032989	1.8930218961748386	-0.6523017019072856	-0.24592887861894563	1.6953768014407875	-0.4441117231574156													-1.196343232697973	1.7956951156003058	0.11123521574333106	-0.22263336777192558	1.7227591541157514	-0.6046296733483204													-0.29855681979459786	2.041437945624834	-0.7281170699833612	-0.28483717341702236	2.099038790623166	-0.7155862645181557	-0.31818738733326574	2.03732316051787	-0.6450800070110128	-0.33004897627565377	1.9594710916957165	-0.6206525884516381	-0.34044501119349563	1.8922811387198661	-0.5700493951743716	-0.2753358885476599	2.047317151108243	-0.816449991713135	-0.2528448157499364	1.9838121818555858	-0.849003083314746	-0.2480203348101809	2.019848134102397	-0.7569982740168183
83	2.7666666666666666	-1.269874608967078	1.7940503359687492	0.23883336427023003	-0.3134086424504833	1.8918453676624443	-0.6521047563788577	-0.24592887861894563	1.6953768014407875	-0.4441117231574156													-1.194300080621771	1.7939255805357885	0.10857004449824124	-0.22263336777192558	1.7227591541157514	-0.6046296733483204													-0.2985406745714995	2.0410427735052363	-0.7280727040588225	-0.2848471137506647	2.099056830660009	-0.7155749211671601	-0.3180860513357331	2.0370552810265488	-0.6445085295756087	-0.3299671127645401	1.9604519755295868	-0.620670689503692	-0.3384974651338595	1.892963886458608	-0.5723540374641104	-0.2722147575356694	2.0458896010556895	-0.8154300681796174	-0.25204244996135233	1.9823124164612655	-0.8457227933299964	-0.2522747895448131	2.019223697251484	-0.7718802044046635
84	2.8	-1.2699108542943969	1.7937335462841566	0.2391626538595578	-0.31206341246039304	1.8939156180882197	-0.6493398308465277	-0.24592887861894563	1.6953768014407875	-0.4441117231574156													-1.1921407529072148	1.792591149735647	0.10574982168096149	-0.22263336777192558	1.7227591541157514	-0.6046296733483204													-0.29855519420487503	2.0410845355082707	-0.7280855090596067	-0.2848224258333591	2.0990997854168025	-0.7155340293742817	-0.3180461027343645	2.0369963849323414	-0.6446422036588639	-0.3298994408096906	1.962263351445979	-0.6208721884324434	-0.33825817584003154	1.894600865776294	-0.5724542621388645	-0.2744367511356206	2.0458924806995973	-0.813293188178954	-0.25128566890294807	1.9836991268505924	-0.8429095081014124	-0.2522457556241627	2.019055689290238	-0.7718883170220497
85	2.8333333333333335	-1.2700236993814489	1.7937413045121515	0.23943121050537916	-0.3122385755451698	1.8928632123682827	-0.649025237662203	-0.24592887861894563	1.6953768014407875	-0.4441117231574156													-1.1944510189068376	1.7937657306887445	0.10902778675576193	-0.22263336777192558	1.7227591541157514	-0.6046296733483204													-0.30067422119483217	2.0410082937509126	-0.7258648520770921	-0.2839685563587409	2.0989918361678743	-0.7126465508002017	-0.32018906601282293	2.035808257230249	-0.6424214721244341	-0.329872950365954	1.9605056458517147	-0.6205737040665745	-0.33840388682505457	1.8934849448123725	-0.5723056641098964	-0.27440456975447663	2.046815803794619	-0.8131488153276761	-0.25366390221825474	1.9823396917478846	-0.8406919948368172	-0.2512617283927204	2.021611161444913	-0.7685575173325261
86	2.8666666666666667	-0.29889766162073145	1.8933579402576597	-0.7076476900553941	-0.31147534126505055	1.8915806905844317	-0.6458210596709324	-0.24592887861894563	1.6953768014407875	-0.4441117231574156													-1.1991040146540932	1.7945757685801407	0.11816195969949603	-0.22263336777192558	1.7227591541157514	-0.6046296733483204													-0.3006363032676263	2.0412239733801965	-0.725755609581365	-0.2839589553610833	2.0989958975675944	-0.7126202568698664	-0.31711697074426126	2.037021896514077	-0.6415310970395157	-0.32896693032387847	1.9599260932033356	-0.6175785952712353	-0.3385287584241166	1.8918087016871117	-0.5719253991014819	-0.27659530946137245	2.0469107174069747	-0.8109136094721127	-0.25285094637785466	1.9825175226523029	-0.8376909870453426	-0.2503020524965788	2.021747322643566	-0.765562477041824
87	2.9	-1.2795039153487973	1.7963868581895885	0.2595068895387158	-0.31017493459054435	1.893202079993186	-0.6428918434926093	-0.24592887861894563	1.6953768014407875	-0.4441117231574156													-1.1960096419917765	1.7945940040875676	0.1204304062449286	-0.22263336777192558	1.7227591541157514	-0.6046296733483204													-0.2997574471564299	2.0411747312296957	-0.7227959617948699	-0.2859312926213871	2.1000955259745	-0.710215185353247	-0.3191405654442183	2.03703545821989	-0.6392957277678959	-0.3259205779250271	1.9600620882741293	-0.6164679315457536	-0.3361639860409911	1.8918839833112004	-0.5740229314883016	-0.2758192042352289	2.045489643487839	-0.808112389845439	-0.25302307481517067	1.979140275729877	-0.8374137954910662	-0.2497600226740233	2.016747392237818	-0.7625057880372469
88	2.933333333333333	-1.279756193168045	1.7956734953840467	0.2603674802725846	-0.3093763125842868	1.8917897317731887	-0.639743338023606	-0.24592887861894563	1.6953768014407875	-0.4441117231574156													-1.1981519445450204	1.7962602745571596	0.12340593559069651	-0.22263336777192558	1.7227591541157514	-0.6046296733483204													-0.29884781767625374	2.0411215800963256	-0.719891729244741	-0.28509530433032987	2.0999687847595636	-0.7073604522721183	-0.31814720101263155	2.036864260175384	-0.6362648553744186	-1.4697794624245746	1.8558323618340011	0.5618028779072586	-0.33537272601402107	1.8944677367987106	-0.5708758114153472	-0.27502372708326955	2.0453296288334495	-0.8052431985576679	-0.25350825209037847	1.9768597298152135	-0.8287100647762777	-0.24985297041941856	2.0163260386628985	-0.7624097587890658
